<svg width="115" height="92" viewBox="0 0 115 92" fill="none" xmlns="http://www.w3.org/2000/svg">
<path d="M36.7195 69C24.5927 69 23 55.4099 23 46V23C13.5901 23 0 24.5899 0 36.7195V46C0 58.7017 10.2982 69 23 69H36.7195Z" fill="#15C1FF"/>
<path d="M0 36.7195C0 24.5927 13.5901 23 23 23H92C92 13.5901 90.4072 0 78.2805 0H23C10.2982 0 0 10.2982 0 23V36.7195Z" fill="#373299"/>
<path d="M78.2808 0C90.4075 0 92.0003 13.5901 92.0003 23V46C101.41 46 115 41.5322 115 29.4055V23C115 10.2982 104.702 0 92.0003 0H78.2808Z" fill="#F0264F"/>
<path d="M115 29.4056C115 41.5324 101.41 46.0001 92 46.0001H23C23 55.41 24.5928 69.0001 36.7195 69.0001H92C104.702 69.0001 115 58.7019 115 46.0001V29.4056Z" fill="#2F333D"/>
<path d="M57.5 92V69H37.375L57.5 92Z" fill="#2F333D"/>
<path d="M40.2501 38.525C42.473 38.525 44.2751 36.7229 44.2751 34.5C44.2751 32.277 42.473 30.475 40.2501 30.475C38.0272 30.475 36.2251 32.277 36.2251 34.5C36.2251 36.7229 38.0272 38.525 40.2501 38.525Z" fill="#1F1E27"/>
<path d="M74.7501 38.525C76.973 38.525 78.7751 36.7229 78.7751 34.5C78.7751 32.277 76.973 30.475 74.7501 30.475C72.5272 30.475 70.7251 32.277 70.7251 34.5C70.7251 36.7229 72.5272 38.525 74.7501 38.525Z" fill="#1F1E27"/>
</svg>
