<svg width="894" height="101" viewBox="0 0 894 101" fill="none" xmlns="http://www.w3.org/2000/svg">
<path d="M42.3135 11.6826C65.1526 11.6827 78.8559 21.5712 83.1396 41.0859H60.1689C59.3166 38.7452 58.29 36.8634 57.1973 35.5508C54.0063 31.7003 47.5364 30.6504 42.291 30.6504C37.0457 30.6504 30.5767 31.7005 27.3857 35.5508C24.5445 38.9856 22.1621 46.1185 22.1621 55.876C22.1622 65.6332 24.5227 72.7654 27.3857 76.2002C30.5767 80.0504 37.0457 81.1006 42.291 81.1006C47.5364 81.1006 54.0063 80.0507 57.1973 76.2002C58.3774 74.7563 59.4701 72.6779 60.3662 70.0527V70.0303H83.249C79.1183 89.9391 65.3709 100.047 42.291 100.047C14.2719 100.047 0 85.1479 0 55.8535C3.10757e-05 26.5592 14.2724 11.6607 42.3135 11.6826ZM120.283 29.4902C140.565 29.4902 155.581 39.7286 155.581 64.4502C155.581 89.1721 140.565 99.4111 120.283 99.4111C100.001 99.4111 84.9863 89.1721 84.9863 64.4502C84.9865 39.7286 100.023 29.4903 120.283 29.4902ZM328.744 29.4902C349.026 29.4902 364.042 39.7286 364.042 64.4502C364.042 66.1784 363.976 67.8415 363.823 69.4385H314.953C316.264 78.8896 321.488 82.7187 328.744 82.7188C334.033 82.7188 338.251 80.6619 340.655 75.8926H362.752C358.73 92.3666 345.551 99.4111 328.744 99.4111C308.462 99.4111 293.447 89.1721 293.447 64.4502C293.447 39.7286 308.462 29.4903 328.744 29.4902ZM530.806 29.4902C551.088 29.4904 566.102 39.7287 566.103 64.4502C566.103 89.172 551.088 99.411 530.806 99.4111C510.523 99.4111 495.508 89.1721 495.508 64.4502C495.508 39.7286 510.545 29.4902 530.806 29.4902ZM438.681 29.4902C447.204 29.4902 453.914 31.6117 458.832 35.834C463.75 40.0564 466.569 45.6577 467.29 52.6367H448.057C447.729 50.2739 446.702 48.4144 444.953 47.0361C443.205 45.658 440.91 44.9571 438.069 44.957C435.643 44.957 433.763 45.4167 432.474 46.3574C431.184 47.2982 430.528 48.5676 430.528 50.1865C430.528 52.1334 431.556 53.5989 433.632 54.5615C435.708 55.546 438.921 56.5087 443.314 57.4932C448.341 58.784 452.45 60.0752 455.598 61.3223C458.767 62.5912 461.543 64.604 463.925 67.4043C466.307 70.2046 467.552 73.9675 467.64 78.6709C467.64 82.6527 466.525 86.1976 464.296 89.3262C462.067 92.4544 458.854 94.9043 454.68 96.6982C450.505 98.4922 445.653 99.3672 440.146 99.3672C434.223 99.3672 428.955 98.3608 424.321 96.3262L424.3 96.3701C419.666 94.3355 416.016 91.5575 413.35 88.0352C410.683 84.5128 409.175 80.5527 408.848 76.1553H429.414C429.654 78.5181 430.747 80.4219 432.692 81.8877C434.637 83.3534 437.042 84.0752 439.883 84.0752C442.483 84.0752 444.494 83.5721 445.915 82.5439C447.336 81.5376 448.035 80.2028 448.035 78.584C448.035 76.6369 447.03 75.1927 444.997 74.252C442.965 73.3113 439.686 72.2831 435.141 71.1455C430.267 70.0079 426.223 68.8046 422.967 67.5576C419.71 66.2888 416.913 64.3195 414.574 61.585C412.214 58.8722 411.055 55.1965 411.055 50.5586C411.055 46.6643 412.126 43.0975 414.29 39.9033C416.432 36.6875 419.601 34.1496 423.775 32.29C427.95 30.4305 432.911 29.4903 438.681 29.4902ZM200.891 29.71C208.846 29.71 215.184 32.2911 219.927 37.4541H219.905C224.648 42.6173 227.03 49.7061 227.03 58.7197V98.4277H206.333V61.5195C206.333 56.9691 205.153 53.4465 202.814 50.9307C200.454 48.4147 197.306 47.1465 193.328 47.1465C189.351 47.1466 186.181 48.4148 183.843 50.9307C181.482 53.4466 180.324 56.991 180.324 61.5195V98.4277H159.518V30.4531H180.324V39.4668C182.422 36.4697 185.264 34.0851 188.848 32.335C192.41 30.5847 196.432 29.71 200.891 29.71ZM261.594 78.8975L276.314 30.4531H298.454L274.369 98.4277H248.688L224.604 30.4531H246.874L261.594 78.8975ZM611.389 29.71C619.344 29.71 625.682 32.2911 630.425 37.4541H630.403C635.146 42.6173 637.528 49.7061 637.528 58.7197V98.4277H616.831V61.5195C616.831 56.9691 615.65 53.4466 613.312 50.9307C610.951 48.415 607.804 47.1465 603.826 47.1465C599.849 47.1465 596.679 48.4148 594.341 50.9307C591.98 53.4466 590.822 56.991 590.822 61.5195V98.4277H570.016V30.4531H590.822V39.4668C592.92 36.4697 595.762 34.0851 599.346 32.335C602.908 30.5847 606.93 29.71 611.389 29.71ZM491.729 98.4268H470.921V30.4531H491.729V98.4268ZM409.723 51.7627H406.597C398.335 51.7628 388.435 54.1913 388.435 66.8584V98.4062H367.628V30.4531H388.435V41.7861C390.861 38.0451 393.92 35.1132 397.57 32.9473H397.549C401.199 30.8033 405.264 29.71 409.723 29.71V51.7627ZM120.283 47.5176C111.869 47.5177 106.164 52.2865 106.164 64.4502C106.164 76.6142 111.869 81.3837 120.283 81.3838C128.698 81.3838 134.402 76.6143 134.402 64.4502C134.402 52.2864 128.698 47.5176 120.283 47.5176ZM530.806 47.5176C522.391 47.5176 516.687 52.2864 516.687 64.4502C516.687 76.6143 522.391 81.3838 530.806 81.3838C539.22 81.3836 544.924 76.614 544.924 64.4502C544.924 52.2867 539.22 47.5178 530.806 47.5176ZM328.744 46.1826C321.903 46.1827 316.877 49.5961 315.216 57.8877H342.273C340.612 49.5741 335.585 46.1826 328.744 46.1826ZM481.391 0.851562C485.04 0.851642 487.903 1.92411 490.22 4.08984C492.536 6.23385 493.695 8.94669 493.695 12.1846C493.695 15.4225 492.536 18.004 490.22 20.1699C487.903 22.3138 484.975 23.4081 481.391 23.4082C477.806 23.4082 474.768 22.3358 472.451 20.1699C470.134 18.0259 468.976 15.3568 468.976 12.1846C468.976 9.01232 470.134 6.23385 472.451 4.08984C474.768 1.94582 477.741 0.851562 481.391 0.851562Z" fill="#0a0a0a"/>
<g clip-path="url(#clip0_9888_12840)">
<path d="M665.743 97.4742H658.658C648.16 97.4742 643.608 96.7117 643.608 83.2094V12.0569H650.693C661.191 12.0569 665.743 12.8194 665.743 26.3217V97.4742Z" fill="url(#paint0_linear_9888_12840)"/>
<path d="M665.743 97.4742H658.658C648.16 97.4742 643.608 96.7117 643.608 83.2094V12.0569H650.693C661.191 12.0569 665.743 12.8194 665.743 26.3217V97.4742Z" fill="url(#paint1_linear_9888_12840)" fill-opacity="0.6" style="mix-blend-mode:hard-light"/>
<path d="M730.805 54.9479C730.805 64.7005 729.2 71.9857 726.29 75.4612C723.037 79.3451 716.223 80.159 711.08 80.159C705.937 80.159 699.126 79.3451 695.87 75.4612C694.531 73.8619 693.468 71.4573 692.711 68.3759C697.923 91.8735 718.548 98.1478 735.389 93.3786C746.766 86.5732 752.518 73.7191 752.518 54.9479C752.518 25.6901 738.542 10.8027 711.077 10.8027C701.233 10.8027 693.123 12.7161 686.769 16.5172C703.609 11.7452 724.234 18.0222 729.446 41.5199C730.334 45.1353 730.802 49.6818 730.802 54.9479H730.805Z" fill="url(#paint2_linear_9888_12840)"/>
<path d="M730.805 54.9479C730.805 64.7005 729.2 71.9857 726.29 75.4612C723.037 79.3451 716.223 80.159 711.08 80.159C705.937 80.159 699.126 79.3451 695.87 75.4612C694.531 73.8619 693.468 71.4573 692.711 68.3759C697.923 91.8735 718.548 98.1478 735.389 93.3786C746.766 86.5732 752.518 73.7191 752.518 54.9479C752.518 25.6901 738.542 10.8027 711.077 10.8027C701.233 10.8027 693.123 12.7161 686.769 16.5172C703.609 11.7452 724.234 18.0222 729.446 41.5199C730.334 45.1353 730.802 49.6818 730.802 54.9479H730.805Z" fill="url(#paint3_linear_9888_12840)" fill-opacity="0.6" style="mix-blend-mode:hard-light"/>
<path d="M730.805 54.9479C730.805 64.7005 729.2 71.9857 726.29 75.4612C723.037 79.3451 716.223 80.159 711.08 80.159C705.937 80.159 699.126 79.3451 695.87 75.4612C694.531 73.8619 693.468 71.4573 692.711 68.3759C697.923 91.8735 718.548 98.1478 735.389 93.3786C746.766 86.5732 752.518 73.7191 752.518 54.9479C752.518 25.6901 738.542 10.8027 711.077 10.8027C701.233 10.8027 693.123 12.7161 686.769 16.5172C703.609 11.7452 724.234 18.0222 729.446 41.5199C730.334 45.1353 730.802 49.6818 730.802 54.9479H730.805Z" fill="url(#paint4_radial_9888_12840)" fill-opacity="0.6" style="mix-blend-mode:hard-light"/>
<path d="M669.641 54.9476C669.641 84.2026 683.617 99.0928 711.081 99.0928C720.925 99.0928 729.036 97.1794 735.39 93.3783C718.549 98.1504 697.925 91.8733 692.713 68.3757C691.825 64.7602 691.356 60.2138 691.356 54.9476C691.356 45.195 692.961 37.9099 695.871 34.4343C699.124 30.5504 705.938 29.7365 711.081 29.7365C716.225 29.7365 723.036 30.5504 726.291 34.4343C727.631 36.0336 728.693 38.4382 729.45 41.5196C724.235 18.022 703.611 11.7449 686.77 16.517C675.392 23.3224 669.641 36.1764 669.641 54.9476Z" fill="url(#paint5_linear_9888_12840)"/>
<path d="M669.641 54.9476C669.641 84.2026 683.617 99.0928 711.081 99.0928C720.925 99.0928 729.036 97.1794 735.39 93.3783C718.549 98.1504 697.925 91.8733 692.713 68.3757C691.825 64.7602 691.356 60.2138 691.356 54.9476C691.356 45.195 692.961 37.9099 695.871 34.4343C699.124 30.5504 705.938 29.7365 711.081 29.7365C716.225 29.7365 723.036 30.5504 726.291 34.4343C727.631 36.0336 728.693 38.4382 729.45 41.5196C724.235 18.022 703.611 11.7449 686.77 16.517C675.392 23.3224 669.641 36.1764 669.641 54.9476Z" fill="url(#paint6_linear_9888_12840)" fill-opacity="0.6" style="mix-blend-mode:hard-light"/>
<path d="M669.641 54.9476C669.641 84.2026 683.617 99.0928 711.081 99.0928C720.925 99.0928 729.036 97.1794 735.39 93.3783C718.549 98.1504 697.925 91.8733 692.713 68.3757C691.825 64.7602 691.356 60.2138 691.356 54.9476C691.356 45.195 692.961 37.9099 695.871 34.4343C699.124 30.5504 705.938 29.7365 711.081 29.7365C716.225 29.7365 723.036 30.5504 726.291 34.4343C727.631 36.0336 728.693 38.4382 729.45 41.5196C724.235 18.022 703.611 11.7449 686.77 16.517C675.392 23.3224 669.641 36.1764 669.641 54.9476Z" fill="url(#paint7_radial_9888_12840)" style="mix-blend-mode:hard-light"/>
<path d="M669.641 54.9476C669.641 84.2026 683.617 99.0928 711.081 99.0928C720.925 99.0928 729.036 97.1794 735.39 93.3783C718.549 98.1504 697.925 91.8733 692.713 68.3757C691.825 64.7602 691.356 60.2138 691.356 54.9476C691.356 45.195 692.961 37.9099 695.871 34.4343C699.124 30.5504 705.938 29.7365 711.081 29.7365C716.225 29.7365 723.036 30.5504 726.291 34.4343C727.631 36.0336 728.693 38.4382 729.45 41.5196C724.235 18.022 703.611 11.7449 686.77 16.517C675.392 23.3224 669.641 36.1764 669.641 54.9476Z" fill="url(#paint8_radial_9888_12840)" style="mix-blend-mode:hard-light"/>
<path d="M711.08 80.1556C705.937 80.1556 699.126 79.3417 695.87 75.4578C694.531 73.8586 693.468 71.454 692.711 68.3726C696.35 85.3903 708.504 92.7155 720.359 96.8736C732.353 101.08 744.553 100.435 756.176 98.747C760.92 82.6402 755.094 76.563 744.056 77.751C725.593 79.7415 719.008 80.1556 711.077 80.1556" fill="#F0264F"/>
<path d="M711.08 80.1556C705.937 80.1556 699.126 79.3417 695.87 75.4578C694.531 73.8586 693.468 71.454 692.711 68.3726C696.35 85.3903 708.504 92.7155 720.359 96.8736C732.353 101.08 744.553 100.435 756.176 98.747C760.92 82.6402 755.094 76.563 744.056 77.751C725.593 79.7415 719.008 80.1556 711.077 80.1556" fill="url(#paint9_radial_9888_12840)" style="mix-blend-mode:hard-light"/>
<path d="M711.08 80.1556C705.937 80.1556 699.126 79.3417 695.87 75.4578C694.531 73.8586 693.468 71.454 692.711 68.3726C696.35 85.3903 708.504 92.7155 720.359 96.8736C732.353 101.08 744.553 100.435 756.176 98.747C760.92 82.6402 755.094 76.563 744.056 77.751C725.593 79.7415 719.008 80.1556 711.077 80.1556" fill="url(#paint10_radial_9888_12840)" fill-opacity="0.4" style="mix-blend-mode:multiply"/>
</g>
<path d="M820.349 29.0537C825.201 29.0537 829.463 30.0384 833.135 32.0293C836.806 33.9983 839.626 36.6014 841.593 39.8174V30.0596H862.706V99.041H841.593V89.2832C839.538 92.4992 836.675 95.1023 833.003 97.0713C829.331 99.0402 825.07 100.047 820.218 100.047C814.623 100.047 809.508 98.581 804.896 95.6494C800.285 92.7178 796.635 88.561 793.969 83.1572C791.302 77.7534 789.947 71.5181 789.947 64.4297C789.947 57.3415 791.281 51.1285 793.969 45.7686L793.99 45.7461C796.657 40.386 800.307 36.2736 804.919 33.3857C809.53 30.4979 814.666 29.0537 820.349 29.0537ZM776.509 77.0098C780.202 77.0098 783.109 78.1259 785.47 80.3574C787.808 82.5889 788.989 85.3451 788.989 88.6484C788.989 91.952 787.808 94.5564 785.47 96.7441C783.131 98.9317 780.137 100.025 776.509 100.025C772.881 100.025 769.777 98.9319 767.438 96.7441C765.1 94.5564 763.92 91.8645 763.92 88.6484C763.92 85.4327 765.1 82.5888 767.438 80.3574C769.777 78.1259 772.815 77.0098 776.509 77.0098ZM891.86 99.0186H870.748V30.0381H891.86V99.0186ZM826.512 47.4746C822.316 47.4747 818.753 48.9843 815.824 51.9814C812.896 55.0006 811.432 59.1358 811.432 64.4082C811.432 69.6805 812.896 73.8592 815.824 76.9658C818.753 80.0505 822.316 81.6044 826.512 81.6045C830.708 81.6045 834.271 80.0722 837.199 77.0312C840.128 73.9902 841.593 69.8116 841.593 64.5391C841.593 59.2666 840.128 55.1097 837.199 52.0469C834.271 49.0061 830.708 47.4746 826.512 47.4746ZM881.348 0C885.041 0 887.948 1.09372 890.309 3.28125C892.647 5.46903 893.828 8.20426 893.828 11.5078C893.828 14.8113 892.647 17.4148 890.309 19.6025C887.97 21.7902 884.976 22.8838 881.348 22.8838C877.72 22.8837 874.617 21.7901 872.278 19.6025C869.94 17.4148 868.759 14.7238 868.759 11.5078C868.759 8.29177 869.94 5.46903 872.278 3.28125C874.617 1.09382 877.654 7.57283e-05 881.348 0Z" fill="#0a0a0a"/>
<defs>
<linearGradient id="paint0_linear_9888_12840" x1="647.869" y1="-11.4722" x2="647.869" y2="111.066" gradientUnits="userSpaceOnUse">
<stop offset="0.125836" stop-color="#15C1FF"/>
<stop offset="0.517392" stop-color="#4D46C3"/>
<stop offset="0.773983" stop-color="#373299"/>
<stop offset="0.939775" stop-color="#15C1FF"/>
</linearGradient>
<linearGradient id="paint1_linear_9888_12840" x1="654.676" y1="12.0569" x2="654.676" y2="97.4742" gradientUnits="userSpaceOnUse">
<stop offset="0.516558" stop-color="#808080"/>
<stop offset="0.77934" stop-color="#595959"/>
<stop offset="1" stop-color="#808080"/>
</linearGradient>
<linearGradient id="paint2_linear_9888_12840" x1="699.425" y1="-6.61772" x2="699.425" y2="114.294" gradientUnits="userSpaceOnUse">
<stop offset="0.0708454" stop-color="#42CDFF"/>
<stop offset="0.237806" stop-color="#373299"/>
<stop offset="0.497615" stop-color="#4D46C3"/>
<stop offset="1" stop-color="#15C1FF"/>
</linearGradient>
<linearGradient id="paint3_linear_9888_12840" x1="719.643" y1="10.8027" x2="719.643" y2="94.8661" gradientUnits="userSpaceOnUse">
<stop stop-color="#808080"/>
<stop offset="0.22066" stop-color="#535252"/>
<stop offset="0.744836" stop-color="#808080"/>
</linearGradient>
<radialGradient id="paint4_radial_9888_12840" cx="0" cy="0" r="1" gradientTransform="matrix(-23.3657 -29.4454 38.403 -30.4296 752.646 89.4102)" gradientUnits="userSpaceOnUse">
<stop stop-color="#0a0a0a"/>
<stop offset="1" stop-color="#808080" stop-opacity="0"/>
</radialGradient>
<linearGradient id="paint5_linear_9888_12840" x1="682.297" y1="-8.12806" x2="682.297" y2="112.469" gradientUnits="userSpaceOnUse">
<stop offset="0.0603483" stop-color="#15C1FF"/>
<stop offset="0.512348" stop-color="#4D46C3"/>
<stop offset="0.773983" stop-color="#373299"/>
<stop offset="0.922192" stop-color="#15C1FF"/>
</linearGradient>
<linearGradient id="paint6_linear_9888_12840" x1="702.515" y1="15.0283" x2="702.515" y2="99.0928" gradientUnits="userSpaceOnUse">
<stop offset="0.516558" stop-color="#808080"/>
<stop offset="0.77934" stop-color="#595959"/>
<stop offset="1" stop-color="#808080"/>
</linearGradient>
<radialGradient id="paint7_radial_9888_12840" cx="0" cy="0" r="1" gradientUnits="userSpaceOnUse" gradientTransform="translate(732.994 33.7918) rotate(-142.588) scale(43.8511 24.2469)">
<stop stop-color="#0a0a0a"/>
<stop offset="1" stop-color="#808080" stop-opacity="0"/>
</radialGradient>
<radialGradient id="paint8_radial_9888_12840" cx="0" cy="0" r="1" gradientTransform="matrix(-31.1543 -8.04236 8.0482 -31.1317 730.839 103.03)" gradientUnits="userSpaceOnUse">
<stop stop-color="#0a0a0a"/>
<stop offset="1" stop-color="#808080" stop-opacity="0"/>
</radialGradient>
<radialGradient id="paint9_radial_9888_12840" cx="0" cy="0" r="1" gradientUnits="userSpaceOnUse" gradientTransform="translate(694.87 74.2013) rotate(27.8304) scale(63.618 144.963)">
<stop offset="0.0198274" stop-color="#EDEDED"/>
<stop offset="0.357726" stop-color="#808080"/>
<stop offset="0.5" stop-color="#707070"/>
<stop offset="0.713659" stop-color="#656565"/>
<stop offset="1" stop-color="#8C8C8C"/>
</radialGradient>
<radialGradient id="paint10_radial_9888_12840" cx="0" cy="0" r="1" gradientUnits="userSpaceOnUse" gradientTransform="translate(694.87 74.2013) rotate(27.8304) scale(63.618 144.963)">
<stop offset="0.227498" stop-color="#0a0a0a"/>
<stop offset="0.647812" stop-color="#B1B1B1"/>
<stop offset="1" stop-color="#0a0a0a"/>
</radialGradient>
<clipPath id="clip0_9888_12840">
<rect width="114.232" height="89.2441" fill="white" transform="translate(643.607 10.8027)"/>
</clipPath>
</defs>
</svg>
