<svg width="97" height="86" viewBox="0 0 97 86" fill="none" xmlns="http://www.w3.org/2000/svg">
<path d="M96.7405 85.9998L56.1317 42.9993H23.1611L63.8304 85.9998H96.7405Z" fill="url(#paint0_radial_9890_1697)"/>
<path d="M96.7405 85.9998L56.1317 42.9993H23.1611L63.8304 85.9998H96.7405Z" fill="#2F333D"/>
<path d="M0 60.399C0 62.206 0.665923 64.013 1.99891 65.4226L21.4614 85.9999H54.3727L1.99891 30.6244C0.665923 29.2149 0 27.4078 0 25.6008V60.3979V60.399Z" fill="#F0264F"/>
<path d="M0 60.399C0 62.206 0.665923 64.013 1.99891 65.4226L21.4614 85.9999H54.3727L1.99891 30.6244C0.665923 29.2149 0 27.4078 0 25.6008V60.3979V60.399Z" fill="url(#paint1_linear_9890_1697)"/>
<path d="M67.3309 1.88804C67.3115 1.88118 67.2909 1.87319 67.2715 1.86633C67.2715 1.86633 67.2715 1.86748 67.2726 1.86862C67.292 1.87547 67.3115 1.88118 67.3309 1.88804Z" fill="#2F333D"/>
<path d="M79.7337 9.74884C76.2259 6.19992 72.0271 3.55336 67.4147 1.91882C86.3895 9.95444 83.4186 42.9982 56.1306 42.9982H23.1611L45.1457 66.2449H56.1329C65.1383 66.2449 73.52 62.7828 79.7349 56.4959C85.8744 50.2856 89.2554 41.9839 89.2554 33.1224C89.2554 24.2609 85.8744 15.9592 79.7349 9.74884H79.7337Z" fill="url(#paint2_linear_9890_1697)"/>
<path d="M56.1318 23.2468H31.1123V0H56.1318C60.0463 0 63.843 0.6545 67.3954 1.90982C86.3942 9.93059 83.4301 42.9983 56.133 42.9983C61.763 42.9983 66.0087 38.7526 66.0087 33.1225C66.0087 27.4925 61.763 23.2468 56.133 23.2468H56.1318Z" fill="#F0264F"/>
<path d="M56.1318 23.2468H31.1123V0H56.1318C60.0463 0 63.843 0.6545 67.3954 1.90982C86.3942 9.93059 83.4301 42.9983 56.133 42.9983C61.763 42.9983 66.0087 38.7526 66.0087 33.1225C66.0087 27.4925 61.763 23.2468 56.133 23.2468H56.1318Z" fill="url(#paint3_linear_9890_1697)"/>
<path d="M0.000976562 25.6012C0.000976562 23.7941 0.666899 21.9871 1.99989 20.5776L17.4063 4.28819C19.9958 1.5514 23.5973 0.000244141 27.3644 0.000244141H54.3725L1.99989 55.3758C0.666899 56.7853 0.000976562 58.5923 0.000976562 60.3993V25.6012Z" fill="url(#paint4_linear_9890_1697)"/>
<defs>
<radialGradient id="paint0_radial_9890_1697" cx="0" cy="0" r="1" gradientTransform="matrix(65.1676 40.4515 -34.8962 75.542 36.6189 45.6243)" gradientUnits="userSpaceOnUse">
<stop stop-color="#6D737E"/>
<stop offset="0.281426" stop-color="#191E2A"/>
<stop offset="0.590278" stop-color="#151925"/>
<stop offset="0.92" stop-color="#545A63"/>
</radialGradient>
<linearGradient id="paint1_linear_9890_1697" x1="51.7038" y1="92.9726" x2="51.7038" y2="63.6545" gradientUnits="userSpaceOnUse">
<stop stop-color="white" stop-opacity="0.48"/>
<stop offset="1" stop-color="white" stop-opacity="0"/>
</linearGradient>
<linearGradient id="paint2_linear_9890_1697" x1="93.0076" y1="23.7713" x2="47.974" y2="68.805" gradientUnits="userSpaceOnUse">
<stop stop-color="#15C1FF"/>
<stop offset="0.205136" stop-color="#373299"/>
<stop offset="1" stop-color="#15C1FF"/>
</linearGradient>
<linearGradient id="paint3_linear_9890_1697" x1="77.1592" y1="41.2038" x2="77.1592" y2="22.4508" gradientUnits="userSpaceOnUse">
<stop stop-color="white" stop-opacity="0.64"/>
<stop offset="1" stop-color="white" stop-opacity="0"/>
</linearGradient>
<linearGradient id="paint4_linear_9890_1697" x1="0.000681334" y1="40.5103" x2="44.0131" y2="40.5103" gradientUnits="userSpaceOnUse">
<stop stop-color="#15C1FF"/>
<stop offset="0.119911" stop-color="#373299"/>
<stop offset="1" stop-color="#15C1FF"/>
</linearGradient>
</defs>
</svg>
