<svg width="116" height="88" viewBox="0 0 116 88" fill="none" xmlns="http://www.w3.org/2000/svg">
<path d="M68.9518 0C59.2083 0 51.1804 1.89286 44.8896 5.65709C61.5576 0.934346 81.6272 11.9425 86.648 32.149C87.5045 35.2582 87.9556 39.1674 87.9556 43.6968C87.9556 52.0845 86.4117 58.3483 83.606 61.3366C80.47 64.6767 73.9082 65.3774 68.9545 65.3774C64.0008 65.3774 57.4389 64.6767 54.3029 61.3366C53.0115 59.962 51.9885 57.8919 51.2609 55.2446C56.2817 75.4512 76.3487 86.4593 93.0193 81.7365C104.28 75.0001 109.975 62.2763 109.975 43.6968C109.975 14.7374 96.1419 0 68.9545 0H68.9518Z" fill="url(#paint0_linear_9890_1777)"/>
<path d="M68.951 87.3906C78.6945 87.3906 86.7224 85.4978 93.0131 81.7336C76.3452 86.4563 56.2755 75.4482 51.2547 55.2416C50.3982 52.1325 49.9472 48.2233 49.9472 43.6938C49.9472 35.3062 51.491 29.0423 54.2967 26.054C57.4327 22.714 63.9946 22.0132 68.9483 22.0132C73.902 22.0132 80.4639 22.714 83.5999 26.054C84.8913 27.4287 85.9142 29.4987 86.6418 32.1461C81.621 11.9395 61.5541 0.93136 44.8834 5.65411C33.6229 12.3905 27.9282 25.1143 27.9282 43.6938C27.9282 72.6532 41.7609 87.3906 68.9483 87.3906H68.951Z" fill="url(#paint1_linear_9890_1777)"/>
<path d="M111.615 87.3929C99.5942 87.3929 90.3823 87.2587 82.8807 85.8276C80.3622 85.3444 78.0371 84.7188 75.8623 83.8999C61.9572 78.6697 55.5429 69.2 52.023 57.9073C51.7733 57.1045 51.5397 56.2937 51.3169 55.4721C51.2954 55.3969 51.2766 55.3218 51.2578 55.2439C51.9854 57.8912 53.0084 59.9613 54.2998 61.3359C57.4358 64.676 63.995 65.3767 68.9487 65.3767H100.778C102.851 65.3767 104.671 65.5539 106.255 65.8895C116.77 68.118 116.864 77.2896 111.615 87.3929Z" fill="#F0264F"/>
<path d="M111.615 87.3929C99.5942 87.3929 90.3823 87.2587 82.8807 85.8276C80.3622 85.3444 78.0371 84.7188 75.8623 83.8999C61.9572 78.6697 55.5429 69.2 52.023 57.9073C51.7733 57.1045 51.5397 56.2937 51.3169 55.4721C51.2954 55.3969 51.2766 55.3218 51.2578 55.2439C51.9854 57.8912 53.0084 59.9613 54.2998 61.3359C57.4358 64.676 63.995 65.3767 68.9487 65.3767H100.778C102.851 65.3767 104.671 65.5539 106.255 65.8895C116.77 68.118 116.864 77.2896 111.615 87.3929Z" fill="url(#paint2_linear_9890_1777)"/>
<path d="M0 1.77686H11.5236C18.636 1.77686 24.4112 7.55208 24.4112 14.6644V85.613H12.8876C5.77524 85.613 0 79.8377 0 72.7254V1.77686Z" fill="url(#paint3_linear_9890_1777)"/>
<defs>
<linearGradient id="paint0_linear_9890_1777" x1="92.2436" y1="24.3698" x2="72.5906" y2="74.6817" gradientUnits="userSpaceOnUse">
<stop stop-color="#373299"/>
<stop offset="1" stop-color="#15C1FF"/>
</linearGradient>
<linearGradient id="paint1_linear_9890_1777" x1="61.5841" y1="3.14419" x2="42.7172" y2="61.3173" gradientUnits="userSpaceOnUse">
<stop stop-color="#15C1FF"/>
<stop offset="1" stop-color="#373299"/>
</linearGradient>
<linearGradient id="paint2_linear_9890_1777" x1="111.896" y1="88.0453" x2="53.7232" y2="55.028" gradientUnits="userSpaceOnUse">
<stop stop-color="white" stop-opacity="0.28"/>
<stop offset="0.270311" stop-color="white" stop-opacity="0"/>
<stop offset="0.623804" stop-color="white" stop-opacity="0"/>
<stop offset="0.960788" stop-color="white" stop-opacity="0.8"/>
</linearGradient>
<linearGradient id="paint3_linear_9890_1777" x1="23.064" y1="-8.6481" x2="8.12774" y2="42.4499" gradientUnits="userSpaceOnUse">
<stop stop-color="#15C1FF"/>
<stop offset="1" stop-color="#373299"/>
</linearGradient>
</defs>
</svg>
