<?xml version="1.0" encoding="UTF-8"?>
<svg xmlns="http://www.w3.org/2000/svg" xmlns:xlink="http://www.w3.org/1999/xlink" id="Layer_2" data-name="Layer 2" viewBox="0 0 906.22 348.93">
  <defs>
    <style>
      .cls-1, .cls-2, .cls-3, .cls-4, .cls-5, .cls-6, .cls-7 { fill: #000000; stroke-width: 0; }
    </style>
  </defs>
  <g id="White">
    <g>
      <g>
        <path class="cls-6" d="m827.32,186h-211.82v-49.5h135l-53-42h-82v-10.55c0-22.06,17.89-39.95,39.95-39.95h171.84c13.04,0,24.54,6.53,31.44,16.5h47.49c-10.06-34.94-42.24-60.5-80.41-60.5h-170.61c-46.22,0-83.7,37.47-83.7,83.7v90.8L346.75,6.18c-5.35-4.01-11.86-6.18-18.55-6.18H83.7C37.47,0,0,37.47,0,83.7v62.61c0,46.22,37.47,83.7,83.7,83.7h170.61c46.22,0,83.7-37.47,83.7-83.7V55.5l224.97,168.49c5.21,3.9,11.54,6.01,18.05,6.01h244.78c38.17,0,70.35-25.56,80.41-60.5h-47.47c-6.89,9.97-18.39,16.5-31.42,16.5Zm-533.32-39.95c0,22.06-17.89,39.95-39.95,39.95H82.21c-21.1,0-38.21-17.11-38.21-38.21v-65.61c0-21.09,17.09-38.18,38.18-38.18h211.82v102.05Z"></path>
        <path class="cls-1" d="m581.03,230h244.78c38.17,0,70.35-25.56,80.41-60.5h-47.47c-6.89,9.97-18.39,16.5-31.42,16.5h-211.82v-49.5h135l-53-42h-82v-10.55c0-22.06,17.89-39.95,39.95-39.95h171.84c13.04,0,24.54,6.53,31.44,16.5h47.49c-10.06-34.94-42.24-60.5-80.41-60.5h-170.61c-46.22,0-83.7,37.47-83.7,83.7v90.8l9.53,55.5Z"></path>
        <path class="cls-3" d="m328.03,186c6.38-11.81,9.99-25.33,9.99-39.7V55.5L328.5,0h-36.6l2.13,44v102.05c0,12.55-5.79,23.75-14.84,31.08l48.85,8.87Z"></path>
        <path class="cls-4" d="m858.74,169.5c-6.89,9.97-18.39,16.5-31.42,16.5h-211.42s-16,0-16,0c-9.29,0-17.81-3.25-24.51-8.66l-7.87-5.81L346.75,6.18c-5.35-4.01-11.86-6.18-18.55-6.18H83.7C37.47,0,0,37.47,0,83.7l44-1.52c0-21.09,17.09-38.18,38.18-38.18h211.82s15.5,0,15.5,0c9.29,0,17.81,3.25,24.51,8.66l12.61,9.3v-.02s216.36,162.05,216.36,162.05c5.21,3.9,11.54,6.01,18.05,6.01h244.78c38.17,0,70.35-25.56,80.41-60.5h-47.47Z"></path>
        <path class="cls-2" d="m147.17,230v-44h-64.96c-21.1,0-38.21-17.11-38.21-38.21v-65.61c0-21.09,4.5-67.68,64.5-81.68v-.5h-24.8C37.47,0,0,37.47,0,83.7v62.61c0,46.22,37.47,83.7,83.7,83.7h63.47Z"></path>
        <path class="cls-5" d="m858.74,169.5c-4.47,22.37-13.91,50.27-57.75,60.5h24.8c38.25,0,70.44-25.45,80.42-60.5h-47.47Z"></path>
      </g>
      <g>
        <path class="cls-7" d="m108.12,303.46l16.28,44.97h-5.88l-6.78-18.69h-12.22l-6.91,18.69h-5.91l16.5-44.97h4.91Zm1.84,21.41l-4.31-11.94-4.34,11.94h8.66Z"></path>
        <path class="cls-7" d="m264.13,342.31c-4.6,4.42-9.96,6.62-16.06,6.62-6.54,0-12.07-2.25-16.58-6.77-4.51-4.51-6.77-9.92-6.77-16.23s2.25-11.65,6.77-16.19c4.51-4.54,10.04-6.81,16.58-6.81,6.08,0,11.66,2.31,16.72,6.94l-3.94,3.5c-4.12-3.65-8.39-5.47-12.78-5.47-4.79,0-8.93,1.75-12.42,5.23-3.49,3.49-5.23,7.76-5.23,12.8s1.74,9.37,5.23,12.84c3.49,3.48,7.63,5.22,12.42,5.22,4.1,0,7.58-1.15,10.44-3.44v-13.69h5.62v15.44Z"></path>
        <path class="cls-7" d="m393.02,303.46v4.91h-18.81v15.12h18.81v4.91h-18.81v15.12h18.81v4.91h-24.47v-44.97h24.47Z"></path>
        <path class="cls-7" d="m503.44,303.46l25.62,35.94v-35.94h5.66v44.97h-6.25l-24.97-35.03v35.03h-5.66v-44.97h5.59Z"></path>
        <path class="cls-7" d="m674.48,338.53l3.94,3.5c-5.06,4.6-10.64,6.91-16.72,6.91-6.54,0-12.07-2.25-16.58-6.77-4.51-4.51-6.77-9.92-6.77-16.23s2.25-11.65,6.77-16.19c4.51-4.54,10.04-6.81,16.58-6.81,6.08,0,11.66,2.31,16.72,6.94l-3.94,3.5c-4.12-3.65-8.39-5.47-12.78-5.47-4.79,0-8.93,1.75-12.42,5.23-3.49,3.49-5.23,7.76-5.23,12.8s1.74,9.37,5.23,12.84c3.49,3.48,7.63,5.22,12.42,5.22,4.4,0,8.66-1.82,12.78-5.47Z"></path>
        <path class="cls-7" d="m794.75,330.24l-15.44-26.78h6.25l12.03,20.81,12-20.81h6.25l-15.44,26.78v18.19h-5.66v-18.19Z"></path>
      </g>
    </g>
  </g>
</svg>
