<?xml version="1.0" encoding="UTF-8"?>
<svg id="Layer_2" xmlns="http://www.w3.org/2000/svg" xmlns:xlink="http://www.w3.org/1999/xlink" version="1.1" viewBox="0 0 906.2 348.9">
  <!-- Generator: Adobe Illustrator 30.2.1, SVG Export Plug-In . SVG Version: 2.1.1 Build 1)  -->
  <defs>
    <style>
      .st0 {
        fill: url(#linear-gradient2);
      }

      .st1 {
        fill: url(#linear-gradient1);
      }

      .st2 {
        fill: url(#linear-gradient3);
      }

      .st3 {
        fill: url(#linear-gradient4);
      }

      .st4 {
        fill: url(#linear-gradient);
      }

      .st5 {
        fill: #fff;
      }
    </style>
    <linearGradient id="linear-gradient" x1="739.2" y1="347.1" x2="738.5" y2="181" gradientTransform="translate(0 350) scale(1 -1)" gradientUnits="userSpaceOnUse">
      <stop offset="0" stop-color="#ced0ce"/>
      <stop offset=".5" stop-color="#d6d5d7"/>
      <stop offset=".7" stop-color="#bcbbbd"/>
      <stop offset=".9" stop-color="#adabae"/>
    </linearGradient>
    <linearGradient id="linear-gradient1" x1="43.7" y1="235" x2="858.8" y2="235" gradientTransform="translate(0 350) scale(1 -1)" gradientUnits="userSpaceOnUse">
      <stop offset="0" stop-color="#ababad"/>
      <stop offset="0" stop-color="#aeaeb0"/>
      <stop offset=".1" stop-color="#c4c4c4"/>
      <stop offset=".2" stop-color="#d1d2d0"/>
      <stop offset=".2" stop-color="#d6d7d5"/>
      <stop offset=".2" stop-color="#eae9ea"/>
      <stop offset=".3" stop-color="#f0eef0"/>
      <stop offset=".5" stop-color="#b3b6b5"/>
      <stop offset=".5" stop-color="#b7bab9"/>
      <stop offset=".6" stop-color="#d9dbdb"/>
      <stop offset=".6" stop-color="#eeefef"/>
      <stop offset=".7" stop-color="#f6f7f7"/>
      <stop offset=".7" stop-color="#eaebeb"/>
      <stop offset=".8" stop-color="#cbcccc"/>
      <stop offset=".8" stop-color="#c8cac9"/>
      <stop offset=".9" stop-color="#c3c5c4"/>
      <stop offset=".9" stop-color="#b6b7b8"/>
      <stop offset=".9" stop-color="#ababae"/>
    </linearGradient>
    <linearGradient id="linear-gradient2" x1="-5.6" y1="39" x2="347" y2="214.5" gradientUnits="userSpaceOnUse">
      <stop offset="0" stop-color="#f5f7fb"/>
      <stop offset=".2" stop-color="#e5e6e8"/>
      <stop offset=".6" stop-color="#cdcfcc"/>
      <stop offset=".8" stop-color="#c8cac9"/>
      <stop offset="1" stop-color="#caccca"/>
    </linearGradient>
    <linearGradient id="linear-gradient3" x1="859.3" y1="119.4" x2="821.8" y2="321.4" gradientTransform="translate(0 350) scale(1 -1)" gradientUnits="userSpaceOnUse">
      <stop offset="0" stop-color="#f5f7fb"/>
      <stop offset=".2" stop-color="#e5e6e8"/>
      <stop offset=".6" stop-color="#cdcfcc"/>
      <stop offset=".8" stop-color="#c8cac9"/>
      <stop offset="1" stop-color="#caccca"/>
    </linearGradient>
    <linearGradient id="linear-gradient4" x1="906.2" y1="169.5" x2="906.2" y2="169.5" gradientTransform="matrix(1,0,0,1,0,0)" xlink:href="#linear-gradient1"/>
  </defs>
  <path class="st4" d="M615.5,186v-49.5h135l-53-42h-82v-10.6c0-22.1,17.9-40,40-40h171.8c13,0,24.5,6.5,31.4,16.5h47.5C896.2,25.6,864,0,825.8,0h-170.6c-46.2,0-83.7,37.5-83.7,83.7v90.8l4.9,3.6c8.8,6,14.6,8,26.2,7.9h12.9Z"/>
  <path class="st1" d="M858.7,169.5c-6.9,10-18.4,16.5-31.4,16.5h-227.4c-9.3,0-17.8-3.2-24.5-8.7l-7.9-5.8L346.8,6.2C341.4,2.2,334.9,0,328.2,0H108.5C36.1,18.8,44,82.2,44,82.2c0-21.1,17.1-38.2,38.2-38.2h227.3c9.3,0,17.8,3.2,24.5,8.7l12.6,9.3h0s216.4,162,216.4,162c5.2,3.9,11.5,6,18,6h220c54.5-11.7,57.8-60.5,57.8-60.5h0Z"/>
  <path class="st0" d="M338,146.3V55.6s-6.1-5.1-10.7-7.3c-5.5-2.7-9.3-4.1-17.9-4.3h-15.5v102c0,12.5,2.4,35.9-20.9,40H82.2c-21.1,0-38.2-17.1-38.2-38.2v-65.6C44,61.1,48.5,14.5,108.5.5V0h-24.8C37.5,0,0,37.5,0,83.7v62.6c0,46.2,37.5,83.7,83.7,83.7h199.5c18,0,34.6-9.8,43-25.8,14.2-26.8,11.8-46.9,11.8-58Z"/>
  <path class="st2" d="M858.7,169.5c-4.5,22.4-13.9,50.3-57.8,60.5h24.8c38.2,0,70.4-25.4,80.4-60.5h-47.5Z"/>
  <path class="st5" d="M108.1,303.5l16.3,45h-5.9l-6.8-18.7h-12.2l-6.9,18.7h-5.9l16.5-45h4.9ZM110,324.9l-4.3-11.9-4.3,11.9h8.7,0Z"/>
  <path class="st5" d="M264.1,342.3c-4.6,4.4-10,6.6-16.1,6.6s-12.1-2.2-16.6-6.8c-4.5-4.5-6.8-9.9-6.8-16.2s2.2-11.6,6.8-16.2c4.5-4.5,10-6.8,16.6-6.8s11.7,2.3,16.7,6.9l-3.9,3.5c-4.1-3.6-8.4-5.5-12.8-5.5s-8.9,1.8-12.4,5.2c-3.5,3.5-5.2,7.8-5.2,12.8s1.7,9.4,5.2,12.8c3.5,3.5,7.6,5.2,12.4,5.2s7.6-1.1,10.4-3.4v-13.7h5.6v15.4h0Z"/>
  <path class="st5" d="M393,303.5v4.9h-18.8v15.1h18.8v4.9h-18.8v15.1h18.8v4.9h-24.5v-45h24.5Z"/>
  <path class="st5" d="M503.4,303.5l25.6,35.9v-35.9h5.7v45h-6.2l-25-35v35h-5.7v-45h5.6Z"/>
  <path class="st5" d="M674.5,338.5l3.9,3.5c-5.1,4.6-10.6,6.9-16.7,6.9s-12.1-2.2-16.6-6.8c-4.5-4.5-6.8-9.9-6.8-16.2s2.2-11.6,6.8-16.2c4.5-4.5,10-6.8,16.6-6.8s11.7,2.3,16.7,6.9l-3.9,3.5c-4.1-3.6-8.4-5.5-12.8-5.5s-8.9,1.8-12.4,5.2c-3.5,3.5-5.2,7.8-5.2,12.8s1.7,9.4,5.2,12.8c3.5,3.5,7.6,5.2,12.4,5.2s8.7-1.8,12.8-5.5Z"/>
  <path class="st5" d="M794.8,330.2l-15.4-26.8h6.2l12,20.8,12-20.8h6.2l-15.4,26.8v18.2h-5.7v-18.2h0Z"/>
  <path class="st3" d="M906.2,169.5"/>
</svg>
